# AST/ASF file generated using VICON BodyLanguage
# -----------------------------------------------
:version 1.10
:name VICON
:units
  mass 1.0
  length 0.45
  angle deg
:documentation
   .ast/.asf automatically generated from VICON data using
   VICON BodyBuilder and BodyLanguage model FoxedUp or BRILLIANT.MOD
:root
   order TX TY TZ RX RY RZ
   axis XYZ
   position 0 0 0  
   orientation 0 0 0 
:bonedata
  begin
     id 1 
     name lhipjoint
     direction 0.711131 -0.61297 0.344326 
     length 2.29162 
     axis 0 0 0  XYZ
  end
  begin
     id 2 
     name lfemur
     direction 0.34202 -0.939693 0  
     length 6.71424  
     axis 0 0 20  XYZ
    dof rx ry rz
    limits (-160.0 20.0)
           (-70.0 70.0)
           (-60.0 70.0)
  end
  begin
     id 3 
     name ltibia
     direction 0.34202 -0.939693 0   
     length 6.7087   
     axis 0 0 20   XYZ
    dof rx
    limits (-10.0 170.0)
  end
  begin
     id 4 
     name lfoot
     direction 0.0230374 -0.0632947 0.997729   
     length 1.56743   
     axis -90 7.62852e-016 20   XYZ
    dof rx rz
    limits (-45.0 90.0)
           (-70.0 20.0)
  end
  begin
     id 5 
     name ltoes
     direction 1.53585e-011 -4.21885e-011 1   
     length 0.802914   
     axis -90 7.62852e-016 20   XYZ
    dof rx
    limits (-90.0 20.0)
  end
  begin
     id 6 
     name rhipjoint
     direction -0.733192 -0.592884 0.333043   
     length 2.36925  
     axis 0 0 0  XYZ 
  end
  begin
     id 7 
     name rfemur
     direction -0.34202 -0.939693 0   
     length 6.67027   
     axis 0 0 -20   XYZ
    dof rx ry rz
    limits (-160.0 20.0)
           (-70.0 70.0)
           (-70.0 60.0)
  end
  begin
     id 8 
     name rtibia
     direction -0.34202 -0.939693 0   
     length 6.6862   
     axis 0 0 -20   XYZ
    dof rx
    limits (-10.0 170.0)
 end
 begin
     id 9 
     name rfoot
     direction -0.0949739 -0.260939 0.960672   
     length 1.67698  
     axis -90 -7.62852e-016 -20   XYZ
    dof rx rz
    limits (-45.0 90.0)
           (-20.0 70.0)
  end
  begin
     id 10 
     name rtoes
     direction -1.5353e-011 -4.21868e-011 1   
     length 0.846298   
     axis -90 -7.62852e-016 -20   XYZ
    dof rx
    limits (-90.0 20.0)
  end
  begin
     id 11 
     name lowerback
     direction -0.0206828 0.999785 -0.00109866   
     length 2.04382   
     axis 0 0 0   XYZ
    dof rx ry rz
    limits (-20.0 45.0)
           (-30.0 30.0)
           (-30.0 30.0)
  end
  begin
     id 12 
     name upperback
     direction -0.0105003 0.999727 -0.0208904   
     length 2.04538   
     axis 0 0 0   XYZ
    dof rx ry rz
    limits (-20.0 45.0)
           (-30.0 30.0)
           (-30.0 30.0)
  end
  begin
     id 13 
     name thorax
     direction -0.000416255 0.999808 -0.0196023   
     length 2.0399   
     axis 0 0 0   XYZ
    dof rx ry rz
    limits (-20.0 45.0)
           (-30.0 30.0)
           (-30.0 30.0)
  end
  begin
     id 14 
     name lowerneck
     direction 0.0627861 0.989205 0.13241   
     length 1.46207   
     axis 0 0 0   XYZ
    dof rx ry rz
    limits (-20.0 45.0)
           (-30.0 30.0)
           (-30.0 30.0)
  end
  begin
     id 15 
     name upperneck
     direction 0.00627179 0.994526 0.104303   
     length 1.41419   
     axis 0 0 0   XYZ
    dof rx ry rz
    limits (-20.0 45.0)
           (-30.0 30.0)
           (-30.0 30.0)
  end
  begin
     id 16
     name head
     direction -0.00443838 0.999688 0.0245968  
     length 1.50718  
     axis 0 0 0   XYZ
    dof rx ry rz
    limits (-20.0 45.0)
           (-30.0 30.0)
           (-30.0 30.0)
  end
  begin
     id 17 
     name lclavicle
     direction 0.758742 0.650995 -0.0227258  
     length 2.86888  
     axis 0 0 0   XYZ
    dof ry rz
    limits (-20.0 10.0)
           (0.0 20.0)
  end
  begin
     id 18 
     name lhumerus
     direction 1 -4.48962e-011 1.06664e-027   
     length 4.65776   
     axis -180 -30 -90   XYZ
    dof rx ry rz
    limits (-60.0 90.0)
           (-90.0 90.0)
           (-90.0 90.0)
  end
  begin
     id 19
     name lradius
     direction 1 -4.48968e-011 1.40404e-026   
     length 3.55539   
     axis -180 -30 -90   XYZ
    dof rx
    limits (-10.0 170.0)
  end
  begin
     id 20
     name lwrist
     direction 1 -4.48976e-011 3.32647e-026   
     length 1.77769   
     axis -2.20186e-014 90 90   XYZ
    dof ry
    limits (-180.0 0.0)
 end
  begin
     id 21 
     name lhand
     direction 1 -4.48982e-011 6.65293e-026   
     length 0.707264   
     axis -4.24514e-014 90 90   XYZ
    dof rx rz
    limits (-90.0 90.0)
           (-45.0 45.0)
  end
  begin
     id 22 
     name lfingers
     direction 1 -4.48966e-011 1.33059e-025   
     length 0.570215   
     axis -8.49028e-014 90 90   XYZ
    dof rx
    limits (0.0 90.0)
  end
  begin
     id 23
     name lthumb
     direction 0.707107 -6.3493e-011 0.707107   
     length 0.818718   
     axis -90 45 2.85299e-015   XYZ
    dof rx rz
    limits (-45.0 45.0)
           (-45.0 45.0)
  end
  begin
     id 24 
     name rclavicle
     direction -0.870343 0.482028 -0.100759   
     length 3.2251  
     axis 0 0 0   XYZ 
    dof ry rz
    limits (-10.0 20.0)
           (-20.0 0.0)
  end
  begin
     id 25 
     name rhumerus
     direction -1 -4.48974e-011 -9.45849e-028  
     length 4.71925   
     axis -180 30 90   XYZ
    dof rx ry rz
    limits (-90.0 60.0)
           (-90.0 90.0)
           (-90.0 90.0)
  end
  begin
     id 26 
     name rradius
     direction -1 -4.48965e-011 1.17607e-026   
     length 3.5699   
     axis -180 30 90   XYZ
    dof rx
    limits (-10.0 170.0)
  end
  begin
     id 27 
     name rwrist
     direction -1 -4.48968e-011 3.32647e-026   
     length 1.78495   
     axis -2.20186e-014 -90 -90   XYZ
    dof ry
    limits (-180.0 0.0)
  end
  begin
     id 28
     name rhand
     direction -1 -4.48995e-011 6.65293e-026   
     length 0.507757   
     axis -4.24514e-014 -90 -90   XYZ
    dof rx rz
    limits (-90.0 90.0)
           (-45.0 45.0)
  end
  begin
     id 29
     name rfingers
     direction -1 -4.48864e-011 1.33059e-025   
     length 0.409367   
     axis -8.49028e-014 -90 -90   XYZ
    dof rx
    limits (0.0 90.0)
  end
  begin
     id 30
     name rthumb
     direction -0.707107 -6.3494e-011 0.707107   
     length 0.587771   
     axis -90 -45 -2.85299e-015   XYZ
    dof rx rz
    limits (-45.0 45.0)
           (-45.0 45.0)
  end
:hierarchy
  begin
    root lhipjoint rhipjoint lowerback
    lhipjoint lfemur
    lfemur ltibia
    ltibia lfoot
    lfoot ltoes
    rhipjoint rfemur
    rfemur rtibia
    rtibia rfoot
    rfoot rtoes
    lowerback upperback
    upperback thorax
    thorax lowerneck lclavicle rclavicle
    lowerneck upperneck
    upperneck head
    lclavicle lhumerus
    lhumerus lradius
    lradius lwrist
    lwrist lhand lthumb
    lhand lfingers
    rclavicle rhumerus
    rhumerus rradius
    rradius rwrist
    rwrist rhand rthumb
    rhand rfingers
  end

#!OML:ASF E:\Steps\Project 1\Capture day 1\Session 2\Subject.ASF
:FULLY-SPECIFIED
:DEGREES
48
root 9.28678 16.3309 18.8014 -152.57 -1.32807 179.797
lowerback -29.1203 -1.35857 -6.22755
upperback -2.61696 -0.65453 0.037406
thorax 12.4607 -0.980466 3.09723
lowerneck 0.0156402 0.115745 -4.02225
upperneck 8.93088 -0.680523 6.82555
head 2.9292 -0.43522 2.94084
rclavicle 3.03147e-015 -1.27222e-014
rhumerus -34.0307 -23.6304 -77.7711
rradius 25.8536
rwrist 6.74714
rhand -8.12665 -46.8241
rfingers 7.12502
rthumb 17.787 -76.0306
lclavicle 3.03147e-015 -1.27222e-014
lhumerus -28.0392 0.0218598 85.2779
lradius 19.4325
lwrist -8.18922
lhand -23.5222 -13.7689
lfingers 7.12502
lthumb 2.93877 16.1906
rfemur -25.4514 8.415 18.6361
rtibia 7.19036
rfoot -17.8267 -4.02031
rtoes -31.5991
lfemur -25.909 -9.45712 -16.9897
ltibia 8.72996
lfoot -8.14751 1.2076
ltoes -43.6849
49
root 9.28671 16.3316 18.8048 -152.519 -1.3068 179.796
lowerback -28.9663 -1.35703 -6.21714
upperback -3.0322 -0.675452 -0.0578267
thorax 12.6918 -1.00734 3.18696
lowerneck 0.0553438 0.125924 -4.01484
upperneck 8.92969 -0.668987 6.81673
head 2.92042 -0.430879 2.93627
rclavicle 3.97569e-016 6.36111e-015
rhumerus -34.0671 -23.6782 -77.6969
rradius 25.8969
rwrist 6.89849
rhand -7.80295 -46.2368
rfingers 7.12502
rthumb 18.0984 -75.4148
lclavicle 3.97569e-016 6.36111e-015
lhumerus -28.1566 -0.456397 85.3863
lradius 19.6503
lwrist -7.8873
lhand -23.6598 -13.8563
lfingers 7.12502
lthumb 2.80587 16.105
rfemur -25.5705 8.43214 18.6201
rtibia 7.25617
rfoot -17.7536 -3.99498
rtoes -31.6509
lfemur -26.0037 -9.47745 -16.9576
ltibia 8.75696
lfoot -8.10903 1.21181
ltoes -43.4993
50
root 9.2875 16.334 18.8078 -152.544 -1.29899 179.774
lowerback -28.8054 -1.37558 -6.22639
upperback -3.04963 -0.705979 -0.0599283
thorax 12.5905 -1.01724 3.17957
lowerneck 0.121671 0.137824 -4.03643
upperneck 8.92486 -0.656413 6.81783
head 2.90582 -0.427494 2.94031
rclavicle 6.06293e-015 1.59028e-015
rhumerus -34.0932 -23.6183 -77.6872
rradius 25.9413
rwrist 6.94239
rhand -7.50008 -45.783
rfingers 7.12502
rthumb 18.3898 -74.9338
lclavicle 6.06293e-015 1.59028e-015
lhumerus -28.3577 -0.773106 85.4103
lradius 19.9698
lwrist -7.74331
lhand -23.5696 -13.8326
lfingers 7.12502
lthumb 2.893 16.1275
rfemur -25.5686 8.47521 18.5755
rtibia 7.27482
rfoot -17.8244 -4.00602
rtoes -31.3895
lfemur -26.0122 -9.54738 -16.953
ltibia 8.78037
lfoot -8.15046 1.27301
ltoes -42.968
51
root 9.28761 16.3346 18.8099 -152.557 -1.26197 179.737
lowerback -28.7304 -1.38036 -6.27045
upperback -3.02971 -0.695672 -0.0685937
thorax 12.5741 -1.01197 3.19987
lowerneck 0.194867 0.143942 -4.08395
upperneck 8.91605 -0.652237 6.83632
head 2.88965 -0.428713 2.95497
rclavicle -1.98785e-015 -3.81667e-014
rhumerus -34.0934 -23.1882 -77.8784
rradius 26.171
rwrist 6.48326
rhand -7.79049 -45.8173
rfingers 7.12502
rthumb 18.1104 -74.9941
lclavicle -1.98785e-015 -3.81667e-014
lhumerus -28.4227 -0.985544 85.4418
lradius 20.1752
lwrist -7.64644
lhand -23.5709 -14.0399
lfingers 7.12502
lthumb 2.89181 15.9203
rfemur -25.5716 8.49871 18.5062
rtibia 7.29693
rfoot -17.9114 -3.97622
rtoes -31.1588
lfemur -25.9893 -9.60629 -16.9875
ltibia 8.76777
lfoot -8.20011 1.30809
ltoes -42.2716
52
root 9.28803 16.3341 18.8106 -152.535 -1.2026 179.744
lowerback -28.7173 -1.38442 -6.30526
upperback -3.00101 -0.68697 -0.0445333
thorax 12.6008 -1.00946 3.25151
lowerneck 0.199448 0.152564 -4.07572
upperneck 8.91414 -0.640119 6.8273
head 2.88715 -0.422741 2.95049
rclavicle -1.00386e-014 -3.97569e-015
rhumerus -34.2236 -21.7095 -78.4767
rradius 27.0371
rwrist 5.08275
rhand -8.04319 -46.5599
rfingers 7.12502
rthumb 17.8673 -75.7592
lclavicle -1.00386e-014 -3.97569e-015
lhumerus -28.4309 -1.28532 85.5219
lradius 20.3817
lwrist -7.4218
lhand -23.4248 -14.1019
lfingers 7.12502
lthumb 3.03287 15.8563
rfemur -25.6193 8.48648 18.498
rtibia 7.32809
rfoot -18.0178 -3.87099
rtoes -31.1249
lfemur -25.9837 -9.77993 -16.9064
ltibia 8.72688
lfoot -8.26185 1.38359
ltoes -40.4414
53
root 9.28848 16.3351 18.8108 -152.535 -1.17389 179.738
lowerback -28.66 -1.41117 -6.34071
upperback -2.96707 -0.708601 -0.0146634
thorax 12.6141 -1.01947 3.29894
lowerneck 0.176638 0.168248 -4.09953
upperneck 8.91508 -0.616078 6.82421
head 2.89041 -0.410695 2.95467
rclavicle -3.97569e-016 -1.31198e-014
rhumerus -34.5262 -19.592 -79.3008
rradius 28.3688
rwrist 3.05234
rhand -8.13223 -47.5107
rfingers 7.12502
rthumb 17.7816 -76.7177
lclavicle -3.97569e-016 -1.31198e-014
lhumerus -28.484 -1.5482 85.59
lradius 20.6436
lwrist -7.3631
lhand -23.3348 -14.0205
lfingers 7.12502
lthumb 3.11975 15.9365
rfemur -25.6284 8.4541 18.4941
rtibia 7.33279
rfoot -18.034 -3.85886
rtoes -31.297
lfemur -25.9755 -9.88358 -16.8751
ltibia 8.70352
lfoot -8.2876 1.4558
ltoes -40.0031
54
root 9.28827 16.335 18.8133 -152.473 -1.12073 179.712
lowerback -28.6633 -1.41706 -6.37085
upperback -2.94054 -0.701162 -0.0148133
thorax 12.6466 -1.01741 3.31912
lowerneck 0.209531 0.17452 -4.11254
upperneck 8.90527 -0.609207 6.83224
head 2.88073 -0.408438 2.95959
rclavicle -9.69075e-015 9.14409e-015
rhumerus -34.68 -18.546 -79.7153
rradius 29.149
rwrist 1.94548
rhand -8.15377 -47.8234
rfingers 7.12502
rthumb 17.7609 -77.0323
lclavicle -9.69075e-015 9.14409e-015
lhumerus -28.5693 -1.80324 85.6586
lradius 20.9262
lwrist -7.27476
lhand -23.6204 -13.9648
lfingers 7.12502
lthumb 2.84398 15.996
rfemur -25.7513 8.48098 18.4318
rtibia 7.37854
rfoot -17.9642 -3.90671
rtoes -31.3419
lfemur -26.0794 -9.7164 -16.9803
ltibia 8.74871
lfoot -8.27981 1.48223
ltoes -42.1483
55
root 9.28864 16.3337 18.8169 -152.371 -1.05857 179.715
lowerback -28.6656 -1.42396 -6.36548
upperback -2.94619 -0.71443 -0.00841281
thorax 12.6426 -1.02383 3.31816
lowerneck 0.277355 0.186428 -4.14247
upperneck 8.90838 -0.59737 6.83165
head 2.86867 -0.405906 2.9647
rclavicle 4.22417e-015 1.59028e-015
rhumerus -34.6901 -18.2849 -79.8113
rradius 29.3984
rwrist 1.80833
rhand -7.98915 -47.5445
rfingers 7.12502
rthumb 17.9193 -76.739
lclavicle 4.22417e-015 1.59028e-015
lhumerus -28.7393 -2.1335 85.6999
lradius 21.3004
lwrist -6.98348
lhand -23.7185 -13.8595
lfingers 7.12502
lthumb 2.74919 16.1025
rfemur -25.94 8.54995 18.3808
rtibia 7.42695
rfoot -17.9689 -3.89054
rtoes -31.0319
lfemur -26.2468 -9.6265 -17.0067
ltibia 8.82979
lfoot -8.36449 1.57915
ltoes -43.5512
56
root 9.28983 16.3334 18.8197 -152.308 -1.06096 179.771
lowerback -28.5533 -1.38639 -6.29742
upperback -2.98026 -0.6952 -0.0335775
thorax 12.5409 -1.00794 3.25816
lowerneck 0.240166 0.16451 -4.09239
upperneck 8.91559 -0.627151 6.82859
head 2.8794 -0.418348 2.954
rclavicle -4.17448e-015 3.10104e-014
rhumerus -34.8078 -18.1849 -79.8618
rradius 29.586
rwrist 1.90269
rhand -7.83655 -47.0356
rfingers 7.12502
rthumb 18.0661 -76.2166
lclavicle -4.17448e-015 3.10104e-014
lhumerus -28.8888 -2.86298 85.7713
lradius 21.6222
lwrist -6.48486
lhand -23.5343 -13.8022
lfingers 7.12502
lthumb 2.92711 16.1574
rfemur -26.044 8.58389 18.4333
rtibia 7.49345
rfoot -18.0139 -3.85859
rtoes -30.8992
lfemur -26.3509 -9.67763 -16.8931
ltibia 8.88643
lfoot -8.38087 1.65066
ltoes -43.4377
57
root 9.29173 16.3344 18.8213 -152.281 -1.08538 179.817
lowerback -28.6247 -1.40334 -6.23821
upperback -2.85581 -0.705204 -0.0327496
thorax 12.7268 -1.00856 3.22079
lowerneck 0.194841 0.167098 -4.06636
upperneck 8.90082 -0.619352 6.82434
head 2.88201 -0.41191 2.94798
rclavicle -7.85199e-015 -2.66371e-014
rhumerus -34.6675 -17.8788 -80.0547
rradius 29.8499
rwrist 1.77819
rhand -7.93187 -46.7568
rfingers 7.12502
rthumb 17.9744 -75.9463
lclavicle -7.85199e-015 -2.66371e-014
lhumerus -28.7666 -3.65296 85.8769
lradius 21.9169
lwrist -5.77049
lhand -23.5287 -14.1798
lfingers 7.12502
lthumb 2.93247 15.7798
rfemur -26.0829 8.61903 18.493
rtibia 7.5726
rfoot -18.0161 -3.90353
rtoes -30.966
lfemur -26.3855 -9.74757 -16.7736
ltibia 8.89675
lfoot -8.27991 1.67592
ltoes -42.728
58
root 9.29349 16.3348 18.8233 -152.234 -1.06251 179.821
lowerback -29.0349 -1.43228 -6.20314
upperback -2.19629 -0.669918 0.0263381
thorax 12.9054 -0.974469 3.07275
lowerneck 0.171576 0.170124 -4.01422
upperneck 8.84877 -0.610212 6.82966
head 2.86763 -0.40387 2.93959
rclavicle 1.2921e-015 -1.39149e-014
rhumerus -34.3309 -17.5402 -80.4034
rradius 30.273
rwrist 1.42
rhand -8.17836 -46.9385
rfingers 7.12502
rthumb 17.7372 -76.1496
lclavicle 1.2921e-015 -1.39149e-014
lhumerus -28.4705 -4.4163 85.8884
lradius 22.3163
lwrist -4.97896
lhand -23.6248 -14.5271
lfingers 7.12502
lthumb 2.83975 15.4337
rfemur -26.121 8.50674 18.5167
rtibia 7.50152
rfoot -17.9501 -3.73142
rtoes -30.6491
lfemur -26.448 -9.83892 -16.6917
ltibia 8.91126
lfoot -8.28175 1.71269
ltoes -41.7268
59
root 9.29527 16.3338 18.8267 -152.094 -0.990633 179.827
lowerback -29.2958 -1.40722 -6.16376
upperback -2.05701 -0.606901 -0.0285438
thorax 13.1755 -0.947528 3.0122
lowerneck 0.222287 0.15542 -3.98214
upperneck 8.81087 -0.632884 6.85056
head 2.8467 -0.414902 2.93922
rclavicle -4.47266e-015 4.77083e-015
rhumerus -34.1982 -17.2059 -80.6637
rradius 30.715
rwrist 1.09567
rhand -8.19673 -46.8534
rfingers 7.12502
rthumb 17.7195 -76.066
lclavicle -4.47266e-015 4.77083e-015
lhumerus -28.4198 -5.16116 85.9217
lradius 22.759
lwrist -4.31637
lhand -23.6111 -14.1886
lfingers 7.12502
lthumb 2.8529 15.7721
rfemur -26.2802 8.33022 18.544
rtibia 7.41526
rfoot -17.836 -3.46479
rtoes -30.6503
lfemur -26.6453 -9.817 -16.6376
ltibia 8.97961
lfoot -8.39382 1.71891
ltoes -41.4612
60
root 9.29659 16.3378 18.8271 -152.153 -0.976389 179.798
lowerback -29.0508 -1.39903 -6.18873
upperback -2.10153 -0.602164 -0.0503774
thorax 13.0132 -0.940298 3.00828
lowerneck 0.316123 0.141836 -3.93642
upperneck 8.81187 -0.659873 6.84668
head 2.83071 -0.430672 2.92784
rclavicle -1.19271e-015 -1.70955e-014
rhumerus -34.429 -16.8426 -80.7305
rradius 31.1095
rwrist 0.837874
rhand -8.00814 -46.4036
rfingers 7.12502
rthumb 17.901 -75.5997
lclavicle -1.19271e-015 -1.70955e-014
lhumerus -28.7074 -5.83119 86.0153
lradius 23.1691
lwrist -3.9074
lhand -23.5195 -13.918
lfingers 7.12502
lthumb 2.94142 16.0415
rfemur -26.1943 8.39861 18.4983
rtibia 7.36011
rfoot -17.7829 -3.54505
rtoes -30.8641
lfemur -26.5858 -9.76387 -16.7081
ltibia 8.9907
lfoot -8.50318 1.72405
ltoes -42.1633
61
root 9.29756 16.3391 18.8286 -152.155 -0.989229 179.779
lowerback -28.5519 -1.37009 -6.2059
upperback -2.68882 -0.625184 -0.146031
thorax 12.8772 -0.961756 3.10319
lowerneck 0.481204 0.134231 -3.87853
upperneck 8.84274 -0.685861 6.82353
head 2.81113 -0.449197 2.90739
rclavicle 2.78299e-015 2.78299e-014
rhumerus -34.9602 -16.5926 -80.6231
rradius 31.5036
rwrist 0.607725
rhand -7.85731 -46.2748
rfingers 7.12502
rthumb 18.0461 -75.4576
lclavicle 2.78299e-015 2.78299e-014
lhumerus -29.2238 -6.56961 86.1757
lradius 23.5802
lwrist -3.5803
lhand -23.4244 -14.0747
lfingers 7.12502
lthumb 3.03321 15.8834
rfemur -26.2056 8.51414 18.4501
rtibia 7.38577
rfoot -17.8629 -3.68379
rtoes -30.7085
lfemur -26.6078 -9.65304 -16.7767
ltibia 9.0348
lfoot -8.55835 1.66845
ltoes -43.1305
